<svg viewBox="0 0 123 34" fill="none" xmlns="http://www.w3.org/2000/svg" class="logo"><path d="M19.2195 3.14015C22.2891 2.78848 25.6436 0.111932 28.7386 0.379268C27.2667 0.799369 26.3899 4.16653 26.5617 5.56528C26.7336 6.96402 27.3653 9.19819 25.5767 12.0164C24.178 14.2187 24.0905 16.9414 24.4342 18.808C24.7779 20.6746 24.2528 21.7646 23.6815 22.756C23.1102 23.7457 24.5726 23.6328 26.4695 22.1481C23.8597 24.979 18.1757 26.5862 18.1757 29.9184C16.0242 25.6171 20.0454 23.0981 20.0454 19.8503C20.0454 16.9621 18.9522 15.0987 20.2523 12.1389C21.5794 9.11703 22.0504 5.09744 21.6781 3.97081C21.2898 2.79803 20.771 3.14174 19.2195 3.14174V3.14015Z" fill="white"></path> <path d="M11.9713 16.0471C12.9356 15.0828 14.1593 15.0048 15.3639 14.6499C16.5685 14.2951 17.9863 13.2926 18.661 11.2382C19.3373 9.1775 20.0884 8.96109 20.5563 7.06586C20.9048 5.65757 19.8052 2.63731 16.4173 4.56117C13.1504 6.41502 12.3834 6.49618 10.8303 7.10087C8.62796 7.95698 6.91256 9.3048 6.47973 13.587C6.0469 17.8691 4.06574 22.3375 4.06574 24.788C4.06574 27.2386 2.76566 32.5726 0 33.6436C6.67705 31.2343 11.7676 31.8963 14.7194 29.2564C16.5048 27.6587 15.8047 26.8854 16.4221 25.0045C16.9743 23.3225 19.3596 21.3349 18.4462 18.4849C17.9625 16.9748 15.0663 17.2183 13.6533 18.2685C12.1399 19.392 11.4191 19.8407 11.4191 19.8407C11.8519 19.7039 14.6128 18.6122 14.1084 19.7643C13.6039 20.918 12.3198 22.1465 12.3198 23.3495C12.3198 25.5503 8.35585 27.4216 9.32813 24.6114C10.3004 21.8012 11.5257 19.026 11.3109 16.394C11.0961 13.762 11.828 11.6201 13.8331 10.2309C15.0488 9.38914 16.1484 9.83789 15.2111 11.1714C14.2739 12.5049 14.4982 13.7588 13.6469 14.3651C12.891 14.903 11.9713 16.0487 11.9713 16.0487V16.0471Z" fill="white"></path> <path d="M38.0047 1.9419C40.589 1.9419 40.6112 3.42498 42.9234 3.42498C42.6831 5.2661 43.7668 6.64097 44.3969 9.23C45.0271 11.8174 43.587 14.7024 43.4024 16.5531C43.1716 18.8796 44.0405 20.482 44.5704 21.4065C45.9134 23.7553 44.2696 26.8822 44.6643 28.2586C45.0589 29.6351 46.2826 30.1857 47.9153 30.06C45.5586 30.6233 43.0157 29.1195 40.7274 28.8967C37.7071 28.6039 36.7699 27.4407 36.7699 27.4407C39.709 29.3471 42.6513 26.47 40.8579 22.5523C40.2691 21.2665 38.7781 20.7859 39.378 18.224C39.9779 15.662 40.0989 12.1787 39.1091 10.6303C39.3494 13.0857 38.9133 14.8727 38.253 16.2603C37.5926 17.6479 36.7237 20.9626 39.4035 23.6423C40.6367 24.8755 40.0813 26.7962 38.4216 26.7962C37.1295 26.7962 33.635 26.4255 32.1138 20.9053C32.9221 23.0201 33.6128 23.7616 34.1824 23.951C34.7521 24.1404 35.438 23.4418 34.5723 22.5761C33.9199 21.9237 31.9005 18.7905 33.1115 15.8911C34.3241 12.9934 36.3816 11.5581 36.1429 8.36275C35.9058 5.16903 36.6999 3.10195 38.0047 1.94031V1.9419Z" fill="white"></path> <path d="M38.0207 16.7281C39.176 17.7561 40.4936 18.1062 40.4936 18.1062L40.2613 21.6214C39.2588 20.4836 37.1217 19.5447 37.0198 19.271C36.918 18.9973 38.0207 16.7297 38.0207 16.7297V16.7281Z" fill="white"></path> <path d="M24.3387 15.6524C24.5392 14.5178 27.6566 14.7008 27.6566 15.2849C27.6566 15.8689 29.6075 10.9486 29.6075 10.9486L28.5636 9.70102C28.2024 10.6669 25.3778 10.659 25.3778 10.659C25.3778 10.659 22.0393 14.5322 22.0393 14.6213C22.0393 14.7104 24.3387 15.6524 24.3387 15.6524Z" fill="white"></path> <path d="M44.0724 3.79097C45.2865 3.63503 46.7935 4.35429 48.049 5.15152C49.3045 5.94876 50.2259 6.00764 51.273 6.16199C52.32 6.31635 53.9336 6.85738 54.2439 8.25294C53.4228 6.69985 51.3414 7.32522 51.709 9.19976C52.5221 13.3467 50.3246 16.3033 52.0081 20.0508C53.6249 23.6487 50.6492 26.0324 51.5912 28.7615C52.5333 31.4905 54.5638 32.7938 55.5679 32.7938C52.8786 32.9481 47.5764 26.0865 46.8969 28.8394C45.2643 26.7978 47.9949 24.7116 46.8587 21.9301C45.7226 19.1485 44.5721 17.9646 45.6255 15.0812C46.6789 12.1977 46.5675 9.33979 46.3177 7.43343C46.0679 5.52866 45.678 3.79097 44.0708 3.79097H44.0724Z" fill="white"></path> <path d="M67.3402 15.269C67.3402 12.1134 72.7283 9.12499 73.3521 8.5012C71.1959 11.7363 72.496 13.8782 69.4709 17.3774C68.1995 18.8478 65.4768 25.3482 68.6991 30.0504C67.485 27.3373 77.5403 30.0504 79.1141 25.6537C76.2991 23.4577 79.5485 19.6705 76.8943 17.196C78.5381 19.5527 75.5003 23.1172 71.2277 23.6757C72.3575 19.6911 75.4239 19.018 76.0254 13.8877C76.323 11.3496 77.7536 10.1641 78.7274 8.27206C79.617 6.54233 79.2319 2.97466 84.0153 0.835968C81.0412 1.28471 78.2644 3.65414 74.9593 4.29065C73.481 4.5755 71.8801 3.28178 70.4289 5.71804C68.8455 8.37549 68.9235 9.9636 68.3586 11.1873C67.7937 12.411 67.3402 13.5551 67.3402 15.2705V15.269Z" fill="white"></path> <path d="M86.8667 1.56C81.9942 1.56 80.6304 5.00991 80.4761 6.79693C80.1292 10.8293 76.0045 12.8088 78.697 17.7036C79.9446 19.9712 78.0971 23.846 80.7864 25.9147C83.0364 27.6444 86.1379 27.4678 88.4277 25.1779C90.6317 22.974 91.6342 19.6195 90.8417 16.8618C90.3245 15.0653 90.6985 13.3594 91.5817 11.7347C93.4467 8.30229 93.6424 1.55841 86.8667 1.55841V1.56ZM86.6518 12.6879C85.8705 13.8368 85.1513 16.2221 85.4727 17.7832C85.7941 19.3442 86.6057 20.2131 86.0567 21.6993C85.2754 23.8174 83.5838 23.1968 83.9514 22.1863C84.319 21.1758 84.0787 19.6705 83.2529 17.9137C82.427 16.1569 83.2529 14.3412 83.7589 13.2862C84.2649 12.2296 85.1369 10.5762 85.1369 8.87675C85.1369 7.17725 85.8721 6.02834 87.1117 6.02834C89.0865 6.02834 87.4332 11.5406 86.6518 12.6879Z" fill="white"></path> <path d="M106.309 9.927C107.076 13.5599 102.648 12.9584 104.619 18.5597C105.978 22.4218 104.556 25.859 108.138 29.4426C111.898 33.2028 118.272 32.178 122.728 34C120.669 32.3483 119.561 29.8372 119.813 26.5289C120.109 22.6175 117.216 19.9728 118.522 17.7657C119.813 15.5856 120.26 12.9218 119.813 11.5597C119.092 9.36528 121.598 8.7765 122.453 9.96838C121.57 7.28865 114.983 6.44049 112.506 3.28497C113.446 5.70532 114.931 6.62985 114.533 9.12499C114.135 11.6201 114.649 11.8047 113.39 13.8623C112.865 14.7216 111.04 16.5865 112.523 19.7691C114.006 22.9517 114.504 27.7065 112.654 27.0747C111.011 26.5146 110.819 24.6973 110.601 21.9858C110.384 19.2742 108.357 17.344 109.406 15.3183C110.454 13.2926 111.565 13.3785 111.134 10.3391C110.895 8.65556 112.747 6.08404 113.583 7.89493C113.123 5.80398 111.766 4.71235 109.958 3.7719C108.15 2.83145 108.405 2.62617 105.289 1.65549C110.711 4.37818 105.443 5.82148 106.311 9.92541L106.309 9.927Z" fill="white"></path> <path d="M40.1769 1.40723C39.1728 0.40313 31.9293 -0.530956 29.2448 0.3538C31.506 0.40313 29.9434 1.58068 29.2543 2.66117C28.5048 3.83713 28.3234 5.87239 28.6274 8.34366C28.9297 10.8149 26.8865 12.403 26.2548 14.7422C25.623 17.0814 25.8713 17.3981 26.7576 19.5384C28.2343 23.1092 24.9706 24.7021 24.8799 24.8167C28.8963 24.1261 31.3103 27.6444 35.8964 27.089C33.9582 26.8106 33.1673 26.6737 31.7272 23.4673C30.6881 21.1535 29.8829 17.1339 31.3294 14.5576C32.7759 11.9813 34.0298 9.30002 34.0298 7.09132C34.0298 4.88261 33.3567 -0.387741 40.1785 1.40564L40.1769 1.40723Z" fill="white"></path> <path d="M100.17 14.4112C100.285 12.629 103.889 13.3737 104.05 9.33661C104.194 5.69892 106.021 5.26132 106.661 5.90102C106.608 5.50797 106.179 5.12765 105.106 4.60571C103.314 3.73368 101.247 1.16057 98.8126 1.16057C100.466 1.89574 100.006 3.96442 100.237 4.83485C100.466 5.70529 100.203 9.13451 98.55 9.73125C101.088 4.9367 97.0081 3.40588 99.0163 2.2506C96.9953 2.65956 93.2351 0.355377 88.7079 0.355377C95.3054 1.60772 94.9251 7.80897 93.9448 9.75034C93.0712 11.4801 91.6948 14.4351 92.5668 17.5126C93.4388 20.5902 91.3288 25.0617 88.4358 26.9044C92.0862 25.5121 94.3586 26.7453 96.3795 28.1679C98.4004 29.5921 100.347 29.538 101.265 29.538C98.7394 29.0956 97.0224 26.1931 96.7471 24.2645C96.4718 22.3358 98.3654 20.194 97.0033 16.9732C99.9281 19.898 98.41 22.2467 99.1993 23.9001C100.011 25.5996 98.5659 26.61 98.0599 24.8644C98.0599 26.3809 99.43 27.4407 100.791 28.1504C103.149 29.3805 103.827 32.1764 109.201 32.1764C103.801 31.5828 104.054 22.9087 103.36 17.9089C102.772 13.6681 100.722 13.3451 100.17 14.4096V14.4112Z" fill="white"></path> <path d="M66.2932 27.8576C66.8422 24.9058 66.1357 22.748 65.3958 19.9219C64.6574 17.0957 67.0857 11.0472 67.9466 8.47732C68.8441 5.796 69.7368 3.43452 72.512 2.78528C68.0675 3.12263 68.8711 4.46886 66.298 4.41953C63.2014 4.35906 62.2148 5.05605 61.5783 5.71802C63.7154 5.33452 63.6867 7.63553 63.1664 8.98016C62.6444 10.3248 60.7635 10.9454 61.8249 15.7352C59.5271 12.6385 59.4252 8.43594 59.4093 7.58142C59.3934 6.7269 60.1365 6.2336 60.6839 6.22246C58.6662 6.26065 58.2238 6.41501 56.6437 6.12858C55.0635 5.84373 54.1501 5.04332 51.585 5.01945C53.1381 5.36476 55.595 6.53117 55.0381 9.89675C54.4811 13.2607 52.5477 15.4822 54.1262 19.7373C56.3413 25.7062 53.5391 28.2013 53.2335 26.7771C52.5827 30.3846 58.27 33.6976 61.887 33.1646C58.9654 33.3603 58.0981 30.9527 58.846 28.9524C59.5939 26.9538 59.6273 26.0563 59.0115 24.2884C58.3957 22.5204 58.122 20.7127 58.4784 19.6784C58.515 21.5593 60.9433 23.6693 61.7772 27.4853C61.8742 27.926 61.8917 28.3175 61.8567 28.658C61.8567 28.6724 61.8535 28.6851 61.852 28.6978C61.852 28.7105 61.8488 28.7249 61.8472 28.7376C61.7215 30.0456 61.1216 31.5717 59.9074 30.3575C61.2998 33.05 67.5281 33.3396 71.7927 32.797C68.3555 33.1518 65.5485 31.8358 66.2901 27.856L66.2932 27.8576Z" fill="white"></path></svg>