<svg width="16" height="13" viewBox="0 0 16 13" fill="none" xmlns="http://www.w3.org/2000/svg"><path d="M13.5446 1.49523C12.5246 1.03526 11.4313 0.695287 10.288 0.501967C10.2778 0.500012 10.2673 0.501272 10.2579 0.505571C10.2484 0.509871 10.2406 0.516998 10.2354 0.525965C10.0954 0.771949 9.93937 1.09259 9.83004 1.34591C8.61747 1.16475 7.38471 1.16475 6.17214 1.34591C6.05037 1.06517 5.91305 0.79143 5.76082 0.525965C5.75566 0.516887 5.74785 0.509599 5.73844 0.505073C5.72903 0.500547 5.71847 0.498998 5.70816 0.500633C4.56552 0.693954 3.47222 1.03393 2.45158 1.49457C2.4428 1.49825 2.43536 1.50453 2.43025 1.51257C0.355643 4.56237 -0.213007 7.53684 0.0663185 10.474C0.0670958 10.4812 0.0693288 10.4881 0.0728816 10.4944C0.0764344 10.5007 0.0812327 10.5063 0.0869846 10.5106C1.29788 11.3922 2.64847 12.0638 4.0822 12.4972C4.0922 12.5003 4.10289 12.5002 4.11288 12.4972C4.12287 12.4941 4.13169 12.488 4.1382 12.4798C4.44672 12.0673 4.72012 11.6295 4.95551 11.1713C4.95878 11.165 4.96066 11.1581 4.96103 11.151C4.9614 11.144 4.96025 11.1369 4.95766 11.1304C4.95507 11.1238 4.9511 11.1179 4.94601 11.1129C4.94092 11.108 4.93484 11.1043 4.92818 11.1019C4.49753 10.9398 4.08026 10.7441 3.68021 10.5166C3.67303 10.5125 3.66697 10.5067 3.66259 10.4997C3.6582 10.4927 3.65563 10.4847 3.6551 10.4764C3.65457 10.4682 3.65611 10.4599 3.65956 10.4524C3.66301 10.4448 3.66827 10.4383 3.67488 10.4333C3.75888 10.3713 3.84288 10.3067 3.92287 10.242C3.93007 10.2362 3.93875 10.2325 3.94793 10.2313C3.95711 10.2301 3.96644 10.2315 3.97487 10.2353C6.5928 11.4113 9.42805 11.4113 12.0153 10.2353C12.0238 10.2313 12.0332 10.2297 12.0425 10.2308C12.0518 10.2318 12.0606 10.2355 12.068 10.2413C12.148 10.3067 12.2313 10.3713 12.316 10.4333C12.3226 10.4382 12.328 10.4447 12.3315 10.4521C12.3351 10.4596 12.3368 10.4678 12.3364 10.4761C12.336 10.4843 12.3335 10.4923 12.3293 10.4994C12.325 10.5065 12.3191 10.5124 12.312 10.5166C11.9133 10.746 11.4987 10.9399 11.0633 11.1013C11.0566 11.1037 11.0506 11.1075 11.0455 11.1125C11.0404 11.1175 11.0364 11.1235 11.0338 11.1301C11.0312 11.1367 11.0301 11.1438 11.0305 11.1509C11.0308 11.158 11.0327 11.165 11.036 11.1713C11.276 11.6292 11.5507 12.0652 11.8526 12.4792C11.8589 12.4877 11.8677 12.494 11.8777 12.4974C11.8877 12.5007 11.8985 12.5009 11.9086 12.4978C13.3448 12.0656 14.6976 11.3938 15.9099 10.5106C15.9158 10.5065 15.9207 10.5012 15.9244 10.4949C15.9281 10.4887 15.9304 10.4818 15.9312 10.4746C16.2645 7.07887 15.3725 4.1284 13.5653 1.5139C13.5608 1.5054 13.5535 1.49878 13.5446 1.49523ZM5.34683 8.68543C4.55886 8.68543 3.90887 7.97281 3.90887 7.09887C3.90887 6.22426 4.54619 5.5123 5.34683 5.5123C6.15348 5.5123 6.79746 6.23026 6.78479 7.09887C6.78479 7.97348 6.14748 8.68543 5.34683 8.68543ZM10.6633 8.68543C9.8747 8.68543 9.22539 7.97281 9.22539 7.09887C9.22539 6.22426 9.86203 5.5123 10.6633 5.5123C11.47 5.5123 12.114 6.23026 12.1013 7.09887C12.1013 7.97348 11.4707 8.68543 10.6633 8.68543Z" fill="white"></path></svg>