<svg width="14" height="13" viewBox="0 0 14 13" fill="none" xmlns="http://www.w3.org/2000/svg"><path d="M14 1.92342C13.4852 2.16396 12.9321 2.32649 12.3507 2.39995C12.9506 2.02145 13.3994 1.42574 13.6134 0.723974C13.0498 1.07697 12.4329 1.32545 11.7896 1.45859C11.357 0.971576 10.784 0.648773 10.1595 0.540302C9.53511 0.43183 8.89419 0.543759 8.33627 0.85871C7.77835 1.17366 7.33466 1.67401 7.07408 2.28209C6.81351 2.89016 6.75062 3.57193 6.89518 4.22154C5.75309 4.16108 4.63581 3.84809 3.61587 3.30288C2.59593 2.75767 1.69611 1.99244 0.974808 1.05683C0.728177 1.5054 0.586365 2.02549 0.586365 2.57938C0.58609 3.078 0.702548 3.569 0.925407 4.00879C1.14827 4.44858 1.47064 4.82357 1.86391 5.10049C1.40782 5.08519 0.961782 4.95524 0.562935 4.72148V4.76048C0.562889 5.45983 0.792322 6.13765 1.2123 6.67894C1.63229 7.22023 2.21695 7.59165 2.86708 7.73017C2.44398 7.8509 2.00038 7.86869 1.56981 7.78218C1.75324 8.38392 2.11054 8.91013 2.5917 9.28712C3.07286 9.66412 3.65378 9.87303 4.25315 9.88462C3.23569 10.7268 1.97914 11.1836 0.685634 11.1816C0.456502 11.1816 0.227564 11.1675 0 11.1393C1.31299 12.0294 2.8414 12.5018 4.40236 12.5C9.68643 12.5 12.5751 7.88554 12.5751 3.88349C12.5751 3.75347 12.572 3.62215 12.5665 3.49213C13.1283 3.06369 13.6134 2.53315 13.9988 1.92537L14 1.92342Z" fill="white"></path></svg>