<svg width="13" height="13" viewBox="0 0 25 23" fill="none" xmlns="http://www.w3.org/2000/svg"><path d="M8.51333 8.75507L5.74155 7.51118C5.69205 7.46334 5.59306 7.51118 5.54357 7.60686L2.67279 14.7353C2.62329 14.831 2.72229 14.9267 2.82128 14.9267H8.46383C8.56283 14.9267 8.61232 14.8788 8.61232 14.7831V8.85075C8.61232 8.80291 8.56283 8.75507 8.51333 8.75507ZM24.8965 15.9792C24.7976 15.8835 24.6491 15.8835 24.5006 15.9314L24.1541 16.0749C22.4712 16.8882 20.5904 17.2709 18.7095 17.2709C18.6105 17.2709 18.561 17.3188 18.561 17.3666C18.3631 18.2278 17.6206 18.8497 16.6802 18.8497H12.8195V15.74H12.869C13.1165 15.7878 13.3145 15.7878 13.5619 15.8357C15.1953 16.0749 15.9872 16.7925 16.3337 17.1274L16.3832 17.1752C16.4327 17.2231 16.5317 17.2231 16.5812 17.1752C16.6307 17.1274 16.6802 17.0796 16.7792 17.0317C17.3731 16.649 18.759 15.8357 18.759 11.5299C18.759 7.12844 15.2943 4.16225 14.8983 3.97088L12.869 3.82735H12.8195V2.58346C13.2155 2.34425 13.5124 1.91368 13.5124 1.38742C13.5124 0.621945 12.9185 0 12.1265 0C11.3346 0 10.7407 0.621945 10.7407 1.38742C10.7407 1.86584 10.9881 2.29641 11.4336 2.53562V3.58814L8.51333 3.30109C8.36484 3.30109 8.26585 3.44462 8.36484 3.5403C8.8598 4.30577 10.1962 6.69787 10.2952 10.286C10.3942 13.6349 9.84973 15.2137 9.60225 15.7878C9.55275 15.8357 9.55275 15.8835 9.60225 15.9314C9.65174 15.9792 9.70124 15.9792 9.75073 15.9792C10.0972 15.9314 10.6912 15.8357 11.4336 15.7878V18.8976H8.21635C7.17693 18.8976 6.28601 18.0364 6.28601 17.0317V16.2662C6.28601 16.1706 6.23651 16.1227 6.13752 16.1227H0.148488C0.0989918 16.1227 0 16.1706 0 16.2662C0 16.4098 0 16.5533 0 16.6968C0 18.8497 0.643449 20.8112 1.73236 22.5335C1.93035 22.8206 2.27682 22.9641 2.5738 22.8206L3.21725 22.5335C3.71221 22.2943 4.30616 22.2943 4.85062 22.5335L5.54357 22.8206C6.03853 23.0598 6.63248 23.0598 7.17694 22.8206L7.86988 22.5335C8.41434 22.2943 8.9588 22.2943 9.50325 22.5335L10.1962 22.8206C10.7407 23.0598 11.2851 23.0598 11.8296 22.8206L12.5225 22.5335C13.067 22.2943 13.6114 22.2943 14.1559 22.5335L14.8488 22.8206C15.3933 23.0598 15.9377 23.0598 16.4822 22.8206L17.1751 22.5335C17.7196 22.2943 18.2641 22.2943 18.8085 22.5335L19.5015 22.8206C19.9469 23.012 20.4419 22.7727 20.6894 22.3422C21.0853 21.7202 21.4318 21.0026 21.6793 20.3328C22.2238 18.754 23.2137 17.2709 24.7481 16.5533C24.8965 16.5055 24.946 16.3619 24.946 16.2184C25.045 16.1706 24.9955 16.027 24.8965 15.9792Z" fill="white"></path></svg>