<svg width="2652" height="356" viewBox="0 0 2652 356" fill="none" xmlns="http://www.w3.org/2000/svg">
<path d="M1.50906 345.977L1.39427 346.572H2H189.23C223.915 346.572 247.711 339.441 270.079 325.163L270.083 325.161C302.954 303.723 318.184 267.053 318.184 233.26C318.184 199.985 299.701 177.119 274.576 165.162V164.405C308.2 151.976 330.508 125.801 330.508 90.586C330.508 61.512 318.108 40.9857 301.399 28.0961L301.394 28.092C284.22 15.2113 258.982 6.662 220.988 6.662H67.412H66.9993L66.9211 7.06725L1.50906 345.977ZM487.294 354.63H487.297C597.593 354.155 671.232 263.341 671.232 154.576C671.232 104.702 655.911 66.1659 628.834 40.1003C601.76 14.0377 562.992 0.5 516.208 0.5C404.008 0.5 329.902 93.6913 328.953 204.342C328.477 254.949 345.945 292.542 374.628 317.476C403.3 342.401 443.126 354.63 487.294 354.63ZM642.86 345.979L642.748 346.572H643.352H932.966H933.38L933.457 346.165L949.099 263.689L949.211 263.096H948.608H822.524C812.326 263.096 802.129 263.333 794.483 263.57C790.659 263.689 787.473 263.807 785.243 263.896C784.128 263.941 783.251 263.978 782.654 264.004L782.428 264.014C782.368 264.016 782.312 264.019 782.26 264.021V263.364L782.325 263.313C782.493 263.18 782.742 262.982 783.065 262.724C783.712 262.209 784.658 261.453 785.851 260.489C788.237 258.562 791.617 255.805 795.589 252.485C803.533 245.846 813.851 236.951 823.342 227.935L823.345 227.932L975.973 80.5176L976.087 80.407L976.117 80.2505L989.863 7.25453L989.975 6.662H989.372H720.614H720.2L720.122 7.06884L704.48 89.5448L704.368 90.138H704.972H809.252C818.27 90.138 826.93 89.7821 833.335 89.4262C836.538 89.2483 839.177 89.0704 841.016 88.9369C841.936 88.8701 842.655 88.8145 843.145 88.7755C843.22 88.7696 843.29 88.764 843.354 88.7589V89.4011L843.331 89.4195L843.176 89.5465C843.057 89.6444 842.909 89.7657 842.735 89.9093C842.215 90.3376 841.457 90.964 840.504 91.7571C838.6 93.3432 835.917 95.5963 832.804 98.2644C826.58 103.599 818.632 110.598 811.748 117.244L812.096 117.604L811.748 117.244L658.172 265.606L658.058 265.717L658.028 265.873L642.86 345.979ZM1119.16 354.63H1119.16C1229.46 354.155 1303.1 263.341 1303.1 154.576C1303.1 104.702 1287.78 66.1659 1260.7 40.1003C1233.62 14.0377 1194.86 0.5 1148.07 0.5C1035.87 0.5 961.767 93.6913 960.817 204.342C960.342 254.949 977.81 292.542 1006.49 317.476C1035.16 342.401 1074.99 354.63 1119.16 354.63ZM1336.07 345.979L1335.95 346.572H1336.56H1626.17H1626.59L1626.66 346.165L1642.31 263.689L1642.42 263.096H1641.81H1515.73C1505.53 263.096 1495.34 263.333 1487.69 263.57C1483.87 263.689 1480.68 263.807 1478.45 263.896C1477.33 263.941 1476.46 263.978 1475.86 264.004C1475.71 264.01 1475.58 264.016 1475.47 264.021V263.364L1475.53 263.313L1475.72 263.161C1475.87 263.043 1476.05 262.897 1476.27 262.724C1476.92 262.209 1477.86 261.453 1479.06 260.489C1481.44 258.562 1484.82 255.805 1488.8 252.485C1496.74 245.846 1507.06 236.951 1516.55 227.935L1516.55 227.932L1669.18 80.5176L1669.29 80.407L1669.32 80.2505L1683.07 7.25453L1683.18 6.662H1682.58H1413.82H1413.41L1413.33 7.06884L1397.69 89.5448L1397.57 90.138H1398.18H1502.46C1511.48 90.138 1520.14 89.7821 1526.54 89.4262C1529.74 89.2483 1532.38 89.0704 1534.22 88.9369C1535.14 88.8701 1535.86 88.8145 1536.35 88.7755L1536.56 88.7588V89.4011L1536.54 89.4195C1536.4 89.5306 1536.2 89.6952 1535.94 89.9093C1535.42 90.3376 1534.66 90.964 1533.71 91.7571C1531.81 93.3432 1529.12 95.5963 1526.01 98.2644C1519.79 103.599 1511.84 110.598 1504.95 117.244L1505.3 117.604L1504.95 117.244L1351.38 265.606L1351.26 265.717L1351.23 265.873L1336.07 345.979ZM1812.37 354.63H1812.37C1922.66 354.155 1996.3 263.341 1996.3 154.576C1996.3 104.702 1980.98 66.1659 1953.9 40.1003C1926.83 14.0377 1888.06 0.5 1841.28 0.5C1729.08 0.5 1654.97 93.6913 1654.02 204.342C1653.55 254.949 1671.02 292.542 1699.7 317.476C1728.37 342.401 1768.2 354.63 1812.37 354.63ZM2186.48 346.275L2186.61 346.572H2186.94H2294.53H2295.32L2294.99 345.863L2203.18 146.637L2352.02 8.16535L2313.84 205.673C2303.62 258.411 2315.73 295.223 2341.9 318.833C2368.04 342.414 2408.12 352.734 2453.68 352.734C2498.32 352.734 2533.17 341.692 2558.82 320.387C2584.47 299.081 2600.86 267.561 2608.7 226.718L2650.88 7.25639L2651 6.662H2650.39H2553.22H2552.81L2552.73 7.06663L2510.55 224.159L2511.04 224.254L2510.55 224.16C2507.48 240.211 2501.59 252.424 2492.8 260.623C2484.03 268.816 2472.31 273.05 2457.48 273.05C2438.36 273.05 2424.91 267.741 2417.04 258.241C2409.17 248.74 2406.79 234.93 2410.09 217.712L2450.86 7.25708L2450.97 6.662H2450.37H2353.63H2352.72H2352.36H2352.31H2239.08H2238.88L2238.73 6.8014L2119.94 120.892L2141.92 7.25695L2142.04 6.662H2141.43H2043.79H2043.38L2043.3 7.06725L1977.89 345.977L1977.77 346.572H1978.38H2076.02H2076.43L2076.51 346.167L2096.86 241.098L2127.04 212.776L2186.48 346.275ZM184.49 268.784H113.046L125.654 202.476H191.126C200.274 202.476 208.447 205.174 214.324 210.178C220.192 215.174 223.806 222.498 223.806 231.838C223.806 244.74 219.121 253.954 211.9 259.953C204.664 265.962 194.834 268.784 184.49 268.784ZM201.554 138.908H138.17L148.879 83.502H206.768C215.205 83.502 222.31 85.9624 227.298 90.254C232.279 94.5398 235.182 100.68 235.182 108.124C235.182 119.82 230.514 127.489 224.011 132.25C217.485 137.028 209.066 138.908 201.554 138.908ZM428.07 204.346C428.07 176.921 434.574 145.964 448.445 121.823C462.31 97.6917 483.499 80.4199 512.893 80.184C534.791 80.1845 549.559 88.298 558.874 101.539C568.211 114.809 572.115 133.295 572.115 154.102C572.115 182.003 565.728 212.246 552.097 235.496C538.474 258.732 517.644 274.946 488.716 274.946C467.053 274.946 451.921 266.831 442.189 253.992C432.441 241.132 428.07 223.477 428.07 204.346ZM1059.93 204.346C1059.93 176.921 1066.44 145.964 1080.31 121.823C1094.17 97.6917 1115.36 80.4199 1144.76 80.184C1166.65 80.1845 1181.42 88.298 1190.74 101.539C1200.08 114.809 1203.98 133.295 1203.98 154.102C1203.98 182.003 1197.59 212.246 1183.96 235.496C1170.34 258.732 1149.51 274.946 1120.58 274.946C1098.92 274.946 1083.79 266.831 1074.05 253.992C1064.31 241.132 1059.93 223.477 1059.93 204.346ZM1753.14 204.346C1753.14 176.921 1759.64 145.964 1773.52 121.823C1787.38 97.6917 1808.57 80.4199 1837.96 80.184C1859.86 80.1845 1874.63 88.298 1883.95 101.539C1893.28 114.809 1897.19 133.295 1897.19 154.102C1897.19 182.003 1890.8 212.246 1877.17 235.496C1863.54 258.732 1842.71 274.946 1813.79 274.946C1792.12 274.946 1776.99 266.831 1767.26 253.992C1757.51 241.132 1753.14 223.477 1753.14 204.346Z" stroke="#FFFFF7" stroke-opacity="0.1"/>
</svg>
