<svg width="73" height="22" viewBox="0 0 73 22" fill="none" xmlns="http://www.w3.org/2000/svg">
<path d="M11.7793 5.07558C11.7793 4.89949 11.9207 4.75674 12.0951 4.75674H14.4082C14.5827 4.75674 14.7241 4.89949 14.7241 5.07558V16.9244C14.7241 17.1005 14.5827 17.2432 14.4082 17.2432H12.0951C11.9207 17.2432 11.7793 17.1005 11.7793 16.9244V5.07558Z" fill="white"/>
<path d="M5.88963 5.07558C5.88963 4.89949 6.03103 4.75674 6.20545 4.75674H8.51863C8.69305 4.75674 8.83445 4.89949 8.83445 5.07558V16.9244C8.83445 17.1005 8.69305 17.2432 8.51863 17.2432H6.20545C6.03103 17.2432 5.88963 17.1005 5.88963 16.9244V5.07558Z" fill="white"/>
<path d="M2.94482 1.48649C2.94482 0.665523 3.60403 0 4.41722 0C5.23041 0 5.88963 0.665523 5.88963 1.48649C5.88963 2.30745 5.23041 2.97297 4.41722 2.97297C3.60403 2.97297 2.94482 2.30745 2.94482 1.48649Z" fill="#FFF85C"/>
<path d="M8.83444 20.5135C8.83444 19.6926 9.49366 19.027 10.3068 19.027C11.12 19.027 11.7793 19.6926 11.7793 20.5135C11.7793 21.3345 11.12 22 10.3068 22C9.49366 22 8.83444 21.3345 8.83444 20.5135Z" fill="#FFF85C"/>
<path d="M0 5.07558C0 4.89949 0.141398 4.75674 0.315821 4.75674H2.62899C2.80342 4.75674 2.94481 4.89949 2.94481 5.07558V16.9244C2.94481 17.1005 2.80342 17.2432 2.62899 17.2432H0.315821C0.141398 17.2432 0 17.1005 0 16.9244V5.07558Z" fill="white"/>
<path d="M24.7692 15.4815V6.35556H26.8633L29.2976 14.7905H29.4678L31.9022 6.35556H33.9962V15.4815H32.9361V7.07259H32.7529L30.3316 15.4815H28.4338L26.0125 7.07259H25.8293V15.4815H24.7692Z" fill="white"/>
<path d="M36.1327 15.4815V9.10637H37.1666V15.4815H36.1327ZM36.6562 8.11556C36.4293 8.11556 36.2374 8.04168 36.0803 7.89393C35.932 7.74617 35.8578 7.55931 35.8578 7.33333C35.8578 7.09867 35.932 6.90746 36.0803 6.7597C36.2374 6.61195 36.4293 6.53807 36.6562 6.53807C36.883 6.53807 37.0706 6.61195 37.219 6.7597C37.3673 6.90746 37.4415 7.09867 37.4415 7.33333C37.4415 7.55931 37.3673 7.74617 37.219 7.89393C37.0706 8.04168 36.883 8.11556 36.6562 8.11556Z" fill="white"/>
<path d="M39.3408 15.4815V9.10637H40.3747V15.4815H39.3408ZM39.8643 8.11556C39.6374 8.11556 39.4455 8.04168 39.2884 7.89393C39.1401 7.74617 39.0659 7.55931 39.0659 7.33333C39.0659 7.09867 39.1401 6.90746 39.2884 6.7597C39.4455 6.61195 39.6374 6.53807 39.8643 6.53807C40.0912 6.53807 40.2788 6.61195 40.4271 6.7597C40.5754 6.90746 40.6496 7.09867 40.6496 7.33333C40.6496 7.55931 40.5754 7.74617 40.4271 7.89393C40.2788 8.04168 40.0912 8.11556 39.8643 8.11556Z" fill="white"/>
<path d="M42.5489 15.4815V9.10637H43.5567V10.1884H43.7399C43.8795 9.88425 44.1151 9.61047 44.4467 9.36711C44.7869 9.11506 45.2843 8.98904 45.9387 8.98904C46.4186 8.98904 46.8461 9.08899 47.2213 9.28889C47.6052 9.48879 47.9106 9.7843 48.1375 10.1754C48.3643 10.5665 48.4778 11.0489 48.4778 11.6225V15.4815H47.4438V11.7007C47.4438 11.0663 47.2824 10.6056 46.9596 10.3188C46.6455 10.032 46.2179 9.88859 45.6769 9.88859C45.0574 9.88859 44.5514 10.0885 44.1587 10.4883C43.7748 10.8881 43.5828 11.4835 43.5828 12.2744V15.4815H42.5489Z" fill="white"/>
<path d="M53.2848 15.664C52.7351 15.664 52.229 15.5336 51.7666 15.2729C51.3041 15.0121 50.9377 14.6341 50.6672 14.1387C50.3967 13.6433 50.2614 13.0566 50.2614 12.3787V12.2092C50.2614 11.5313 50.3967 10.9489 50.6672 10.4622C50.9377 9.96681 51.2998 9.58874 51.7535 9.328C52.2159 9.05857 52.7264 8.92385 53.2848 8.92385C53.7298 8.92385 54.105 8.98469 54.4104 9.10637C54.7245 9.21936 54.9775 9.36711 55.1695 9.54963C55.3614 9.72346 55.5097 9.91032 55.6145 10.1102H55.7977V6.35556H56.8316V15.4815H55.8239V14.4255H55.6406C55.4661 14.7471 55.1956 15.0339 54.8292 15.2859C54.4627 15.538 53.9479 15.664 53.2848 15.664ZM53.5596 14.7514C54.2228 14.7514 54.7594 14.5428 55.1695 14.1256C55.5883 13.6998 55.7977 13.1087 55.7977 12.3526V12.2353C55.7977 11.4791 55.5883 10.8924 55.1695 10.4753C54.7594 10.0494 54.2228 9.83644 53.5596 9.83644C52.9052 9.83644 52.3643 10.0494 51.9367 10.4753C51.5179 10.8924 51.3085 11.4791 51.3085 12.2353V12.3526C51.3085 13.1087 51.5179 13.6998 51.9367 14.1256C52.3643 14.5428 52.9052 14.7514 53.5596 14.7514Z" fill="white"/>
<path d="M61.9302 15.664C61.2845 15.664 60.7173 15.5293 60.2287 15.2599C59.7401 14.9817 59.3605 14.595 59.09 14.0996C58.8196 13.6041 58.6843 13.0305 58.6843 12.3787V12.2222C58.6843 11.5617 58.8196 10.9837 59.09 10.4883C59.3605 9.99289 59.7357 9.61047 60.2156 9.34104C60.6955 9.06291 61.2452 8.92385 61.8647 8.92385C62.4668 8.92385 62.999 9.05422 63.4615 9.31496C63.9239 9.56701 64.286 9.93205 64.5478 10.4101C64.8095 10.8881 64.9404 11.4487 64.9404 12.0919V12.5612H59.7183C59.7445 13.2478 59.967 13.7867 60.3858 14.1778C60.8046 14.5602 61.3281 14.7514 61.9563 14.7514C62.506 14.7514 62.9292 14.6254 63.2259 14.3733C63.5225 14.1213 63.7494 13.8214 63.9065 13.4738L64.7964 13.904C64.6656 14.1734 64.4823 14.4429 64.2467 14.7123C64.0199 14.9817 63.7189 15.2077 63.3437 15.3902C62.9772 15.5727 62.506 15.664 61.9302 15.664ZM59.7314 11.7138H63.8934C63.8585 11.1228 63.6534 10.6621 63.2782 10.3319C62.9118 10.0016 62.4406 9.83644 61.8647 9.83644C61.2801 9.83644 60.8002 10.0016 60.425 10.3319C60.0498 10.6621 59.8186 11.1228 59.7314 11.7138Z" fill="white"/>
<path d="M69.4531 15.664C68.9034 15.664 68.3974 15.5336 67.9349 15.2729C67.4725 15.0121 67.106 14.6341 66.8355 14.1387C66.565 13.6433 66.4298 13.0566 66.4298 12.3787V12.2092C66.4298 11.5313 66.565 10.9489 66.8355 10.4622C67.106 9.96681 67.4681 9.58874 67.9218 9.328C68.3843 9.05857 68.8947 8.92385 69.4531 8.92385C69.8981 8.92385 70.2733 8.98469 70.5787 9.10637C70.8928 9.21936 71.1459 9.36711 71.3378 9.54963C71.5298 9.72346 71.6781 9.91032 71.7828 10.1102H71.966V6.35556H73V15.4815H71.9922V14.4255H71.809C71.6345 14.7471 71.364 15.0339 70.9975 15.2859C70.6311 15.538 70.1163 15.664 69.4531 15.664ZM69.728 14.7514C70.3911 14.7514 70.9277 14.5428 71.3378 14.1256C71.7566 13.6998 71.966 13.1087 71.966 12.3526V12.2353C71.966 11.4791 71.7566 10.8924 71.3378 10.4753C70.9277 10.0494 70.3911 9.83644 69.728 9.83644C69.0736 9.83644 68.5326 10.0494 68.1051 10.4753C67.6862 10.8924 67.4768 11.4791 67.4768 12.2353V12.3526C67.4768 13.1087 67.6862 13.6998 68.1051 14.1256C68.5326 14.5428 69.0736 14.7514 69.728 14.7514Z" fill="white"/>
</svg>
