<svg width="2148" height="356" viewBox="0 0 2148 356" fill="none" xmlns="http://www.w3.org/2000/svg">
<path d="M158.851 354.63H158.854C269.15 354.155 342.789 263.341 342.789 154.576C342.789 104.702 327.468 66.1659 300.391 40.1003C273.317 14.0377 234.549 0.5 187.765 0.5C75.5655 0.5 1.45942 93.691 0.509455 204.341C0.0342661 254.949 17.5023 292.542 46.1854 317.476C74.8574 342.401 114.683 354.63 158.851 354.63ZM324.372 345.977L324.257 346.572H324.863H419.189H419.601L419.679 346.167L457.521 150.81H457.693L521.097 346.226L521.209 346.572H521.573H623.009H623.421L623.5 346.167L688.911 7.25676L689.026 6.662H688.421H594.094H593.683L593.604 7.06625L555.763 201.002H555.583L488.865 6.9994L488.749 6.662H488.393H390.275H389.862L389.784 7.06725L324.372 345.977ZM652.802 345.977L652.687 346.572H653.293H750.937H751.349L751.428 346.167L816.84 7.25676L816.954 6.662H816.349H718.705H718.292L718.214 7.06725L652.802 345.977ZM832.188 345.979L832.076 346.572H832.68H1122.29H1122.71L1122.78 346.165L1138.43 263.689L1138.54 263.096H1137.94H1011.85C1001.65 263.096 991.457 263.333 983.811 263.57C979.987 263.689 976.801 263.807 974.571 263.896C974.208 263.911 973.87 263.924 973.559 263.937C972.914 263.964 972.384 263.986 971.981 264.004L971.802 264.012C971.724 264.015 971.653 264.018 971.587 264.021V263.364L971.653 263.313L971.885 263.129C972.025 263.017 972.195 262.882 972.393 262.724C973.04 262.209 973.985 261.453 975.179 260.489C977.565 258.562 980.945 255.805 984.917 252.485C992.861 245.846 1003.18 236.951 1012.67 227.935L1012.67 227.932L1165.3 80.5176L1165.42 80.407L1165.44 80.2505L1179.19 7.25453L1179.3 6.662H1178.7H909.941H909.527L909.45 7.06884L893.808 89.5448L893.696 90.138H894.299H998.579C1007.6 90.138 1016.26 89.7821 1022.66 89.4262C1025.87 89.2483 1028.5 89.0704 1030.34 88.9369C1031.26 88.8701 1031.98 88.8145 1032.47 88.7755C1032.55 88.7696 1032.62 88.764 1032.68 88.7589V89.4011L1032.66 89.4195C1032.52 89.5306 1032.32 89.6952 1032.06 89.9093C1031.54 90.3376 1030.78 90.964 1029.83 91.7571C1027.93 93.3432 1025.24 95.5963 1022.13 98.2644C1015.91 103.599 1007.96 110.598 1001.08 117.244L1001.42 117.604L1001.08 117.244L847.5 265.606L847.386 265.717L847.356 265.873L832.188 345.979ZM1308.49 354.63H1308.49C1418.79 354.155 1492.42 263.341 1492.42 154.576C1492.42 104.702 1477.1 66.1659 1450.03 40.1003C1422.95 14.0377 1384.18 0.5 1337.4 0.5C1225.2 0.5 1151.09 93.6913 1150.14 204.342C1149.67 254.949 1167.14 292.542 1195.82 317.476C1224.49 342.401 1264.32 354.63 1308.49 354.63ZM1682.6 346.275L1682.73 346.572H1683.06H1790.66H1791.44L1791.11 345.863L1699.31 146.637L1848.14 8.1648L1809.96 205.673C1799.74 258.411 1811.85 295.223 1838.02 318.833C1864.16 342.414 1904.24 352.734 1949.8 352.734C1994.44 352.734 2029.29 341.692 2054.94 320.387C2080.59 299.081 2096.98 267.561 2104.82 226.718L2147.01 7.25639L2147.12 6.662H2146.51H2049.34H2048.93L2048.85 7.06663L2006.67 224.159L2006.67 224.16C2003.6 240.211 1997.71 252.424 1988.92 260.623C1980.15 268.816 1968.43 273.05 1953.6 273.05C1934.48 273.05 1921.03 267.741 1913.16 258.241C1905.29 248.74 1902.91 234.93 1906.21 217.712L1946.98 7.25708L1947.09 6.662H1946.49H1849.76H1848.84H1848.48H1848.43H1735.2H1735L1734.85 6.8014L1616.07 120.892L1638.04 7.25695L1638.16 6.662H1637.55H1539.91H1539.5L1539.42 7.06725L1474.01 345.977L1473.89 346.572H1474.5H1572.14H1572.55L1572.63 346.167L1592.98 241.098L1623.16 212.776L1682.6 346.275ZM99.6274 204.346C99.6274 176.921 106.131 145.964 120.002 121.823C133.867 97.6917 155.056 80.4199 184.449 80.184C206.348 80.1845 221.116 88.298 230.431 101.539C239.768 114.809 243.671 133.295 243.671 154.102C243.671 182.003 237.285 212.246 223.654 235.496C210.031 258.732 189.201 274.946 160.273 274.946C138.61 274.946 123.478 266.831 113.746 253.992C103.998 241.132 99.6274 223.477 99.6274 204.346ZM1249.26 204.346C1249.26 176.921 1255.77 145.964 1269.64 121.823C1283.5 97.6917 1304.69 80.4199 1334.08 80.184C1355.98 80.1845 1370.75 88.298 1380.07 101.539C1389.4 114.809 1393.31 133.295 1393.31 154.102C1393.31 182.003 1386.92 212.246 1373.29 235.496C1359.67 258.732 1338.84 274.946 1309.91 274.946C1288.25 274.946 1273.11 266.831 1263.38 253.992C1253.63 241.132 1249.26 223.477 1249.26 204.346Z" stroke="#FFFFF7" stroke-opacity="0.1"/>
</svg>
